<svg width="12px" height="12px" viewBox="0 0 0.225 0.225" fill="none" xmlns="http://www.w3.org/2000/svg"><path d="M0.158 0.217v0.007h0.007v-0.007zm-0.15 0H0v0.007h0.007zm0.21 0v0.007h0.007v-0.007zM0.12 0.052a0.037 0.037 0 0 1 -0.037 0.037v0.015C0.111 0.105 0.135 0.081 0.135 0.052zM0.082 0.09A0.037 0.037 0 0 1 0.045 0.052H0.03a0.052 0.052 0 0 0 0.052 0.052zM0.045 0.052A0.037 0.037 0 0 1 0.082 0.015V0A0.052 0.052 0 0 0 0.03 0.052zM0.082 0.015C0.103 0.015 0.12 0.032 0.12 0.052h0.015A0.052 0.052 0 0 0 0.082 0zm0.075 0.195H0.007v0.015h0.15zm-0.142 0.007v-0.03H0v0.03zm0.037 -0.067h0.06v-0.015h-0.06zm0.098 0.037v0.03h0.015v-0.03zm-0.037 -0.037a0.037 0.037 0 0 1 0.037 0.037h0.015a0.052 0.052 0 0 0 -0.052 -0.052zm-0.098 0.037a0.037 0.037 0 0 1 0.037 -0.037v-0.015a0.052 0.052 0 0 0 -0.052 0.052zM0.21 0.195v0.022h0.015V0.195zm0.007 0.015H0.18v0.015h0.037zM0.18 0.165a0.03 0.03 0 0 1 0.03 0.03h0.015a0.045 0.045 0 0 0 -0.045 -0.045zm-0.007 -0.045A0.022 0.022 0 0 1 0.15 0.098H0.135A0.037 0.037 0 0 0 0.172 0.135zM0.195 0.098A0.022 0.022 0 0 1 0.172 0.12v0.015A0.037 0.037 0 0 0 0.21 0.098zM0.172 0.075A0.022 0.022 0 0 1 0.195 0.098h0.015A0.037 0.037 0 0 0 0.172 0.06zm0 -0.015A0.037 0.037 0 0 0 0.135 0.098h0.015A0.022 0.022 0 0 1 0.172 0.075z" fill="#ffffff"/></svg>