<svg width="64px" height="64px" viewBox="0 0 1.92 1.92" fill="none" xmlns="http://www.w3.org/2000/svg"><path d="M0.56 0.32a0.16 0.16 0 0 1 0.16 -0.16h0.48a0.16 0.16 0 0 1 0.16 0.16v0.16h0.32a0.08 0.08 0 1 1 0 0.16h-0.086l-0.069 0.971A0.16 0.16 0 0 1 1.366 1.76H0.554a0.16 0.16 0 0 1 -0.16 -0.149L0.326 0.64H0.24a0.08 0.08 0 0 1 0 -0.16h0.32zm0.16 0.16h0.48V0.32H0.72zM0.486 0.64l0.069 0.96H1.366l0.069 -0.96zM0.8 0.8a0.08 0.08 0 0 1 0.08 0.08v0.48a0.08 0.08 0 1 1 -0.16 0v-0.48a0.08 0.08 0 0 1 0.08 -0.08m0.32 0a0.08 0.08 0 0 1 0.08 0.08v0.48a0.08 0.08 0 1 1 -0.16 0v-0.48a0.08 0.08 0 0 1 0.08 -0.08" fill="#0D0D0D"/></svg>