<svg fill="#000000" width="64px" height="64px" viewBox="0 0 1.92 1.92" xmlns="http://www.w3.org/2000/svg"><path fill-rule="evenodd" d="M1.68 1.6a0.08 0.08 0 0 1 0 0.16H0.24a0.08 0.08 0 0 1 0 -0.16zM0.503 1.063l0.88 -0.88a0.08 0.08 0 0 1 0.106 -0.007l0.008 0.007 0.24 0.24a0.08 0.08 0 0 1 0.007 0.106l-0.007 0.008 -0.88 0.88a0.08 0.08 0 0 1 -0.046 0.023L0.8 1.44H0.56a0.08 0.08 0 0 1 -0.079 -0.071L0.48 1.36v-0.24a0.08 0.08 0 0 1 0.016 -0.049zl0.88 -0.88zM1.44 0.353l-0.8 0.8V1.28h0.127l0.8 -0.8z"/></svg>