<svg fill="#ffffff" width="12px" height="12px" viewBox="0 0 0.36 0.36" xmlns="http://www.w3.org/2000/svg"><path d="M0.131 0.116 0.165 0.081V0.225a0.015 0.015 0 0 0 0.03 0V0.081l0.034 0.034a0.015 0.015 0 0 0 0.021 0 0.015 0.015 0 0 0 0 -0.021l-0.06 -0.06a0.015 0.015 0 0 0 -0.005 -0.003 0.015 0.015 0 0 0 -0.011 0 0.015 0.015 0 0 0 -0.005 0.003l-0.06 0.06a0.015 0.015 0 1 0 0.021 0.021M0.315 0.21a0.015 0.015 0 0 0 -0.015 0.015v0.06a0.015 0.015 0 0 1 -0.015 0.015H0.075a0.015 0.015 0 0 1 -0.015 -0.015v-0.06a0.015 0.015 0 0 0 -0.03 0v0.06a0.045 0.045 0 0 0 0.045 0.045h0.21a0.045 0.045 0 0 0 0.045 -0.045v-0.06a0.015 0.015 0 0 0 -0.015 -0.015"/></svg>