<svg width="16px" height="16px" style="margin-right: 3px;" viewBox="0 0 0.32 0.32" xmlns="http://www.w3.org/2000/svg" fill="none"><g fill="#727272"><path d="M0.106 0.025A0.015 0.015 0 0 1 0.105 0.047l-0.027 0.023 0.027 0.024a0.015 0.015 0 1 1 -0.02 0.023L0.045 0.082a0.015 0.015 0 0 1 0 -0.023l0.04 -0.035A0.015 0.015 0 0 1 0.107 0.026m0.037 0a0.015 0.015 0 0 0 0.001 0.021l0.027 0.023 -0.027 0.024a0.015 0.015 0 1 0 0.02 0.023l0.04 -0.035a0.015 0.015 0 0 0 0 -0.023L0.165 0.025a0.015 0.015 0 0 0 -0.021 0.001M0.055 0.15a0.015 0.015 0 0 0 0 0.03h0.21a0.015 0.015 0 0 0 0 -0.03zM0.04 0.225A0.013 0.013 0 0 1 0.055 0.21h0.21a0.015 0.015 0 0 1 0 0.03H0.055A0.013 0.013 0 0 1 0.04 0.225m0.015 0.045a0.015 0.015 0 0 0 0 0.03h0.13a0.015 0.015 0 0 0 0 -0.03z" /></g></svg>