<svg fill="#727272" width="20px" height="20px" viewBox="0 0 0.9 0.9" version="1.1" preserveAspectRatio="xMidYMid meet" xmlns="http://www.w3.org/2000/svg" xmlns:xlink="http://www.w3.org/1999/xlink"><title>group-line</title><path class="clr-i-outline clr-i-outline-path-1" d="M0.447 0.433C0.515 0.433 0.567 0.377 0.567 0.31S0.513 0.19 0.445 0.19 0.325 0.245 0.325 0.31c0 0.067 0.055 0.123 0.123 0.123M0.445 0.24q0.004 0 0 0c0.04 0 0.073 0.033 0.073 0.073S0.485 0.383 0.445 0.383 0.375 0.35 0.375 0.313a0.073 0.073 0 0 1 0.07 -0.073" /><path class="clr-i-outline clr-i-outline-path-2" d="M0.817 0.417A0.255 0.255 0 0 0 0.643 0.355H0.623Q0.615 0.385 0.6 0.407 0.622 0.405 0.643 0.405a0.209 0.209 0 0 1 0.133 0.04v0.181h0.05V0.425z" /><path class="clr-i-outline clr-i-outline-path-3" d="M0.585 0.195A0.064 0.064 0 0 1 0.665 0.163a0.064 0.064 0 0 1 0.033 0.08 0.064 0.064 0 0 1 -0.055 0.037q-0.009 0 -0.018 -0.003 0.004 0.019 0.003 0.035v0.015l0.015 0.003A0.112 0.112 0 0 0 0.645 0.107a0.109 0.109 0 0 0 -0.095 0.055q0.019 0.011 0.035 0.033" /><path class="clr-i-outline clr-i-outline-path-4" d="M0.3 0.41Q0.285 0.387 0.277 0.357H0.257a0.255 0.255 0 0 0 -0.175 0.06L0.075 0.425v0.2h0.05V0.445A0.218 0.218 0 0 1 0.3 0.41" /><path class="clr-i-outline clr-i-outline-path-5" d="M0.257 0.327Q0.265 0.327 0.273 0.325V0.31Q0.273 0.291 0.275 0.275 0.266 0.278 0.257 0.277C0.225 0.277 0.197 0.25 0.197 0.217S0.225 0.157 0.257 0.157c0.025 0 0.047 0.015 0.057 0.037A0.273 0.273 0 0 1 0.353 0.16 0.109 0.109 0 0 0 0.2 0.123 0.111 0.111 0 0 0 0.257 0.327" /><path class="clr-i-outline clr-i-outline-path-6" d="M0.653 0.567 0.647 0.56A0.255 0.255 0 0 0 0.453 0.475a0.255 0.255 0 0 0 -0.197 0.085L0.25 0.567v0.19A0.042 0.042 0 0 0 0.293 0.8h0.32A0.045 0.045 0 0 0 0.655 0.757V0.567zM0.603 0.75H0.3V0.585A0.218 0.218 0 0 1 0.453 0.525a0.2 0.2 0 0 1 0.15 0.06z" /><path x="0" y="0" width="36" height="36" fill-opacity="0" d="M0 0h0.9v0.9H0z" /></svg>