<svg class="sidebar-image" xmlns="http://www.w3.org/2000/svg" width="24px" height="24px" viewBox="0 0 1.56 1.56" enable-background="new 0 0 52 52" xml:space="preserve"><g><g><path d="m0.72 0.21 -0.051 -0.051c-0.015 -0.015 -0.036 -0.015 -0.051 0L0.3 0.474l-0.129 -0.126c-0.015 -0.015 -0.036 -0.015 -0.051 0l-0.051 0.051c-0.015 0.015 -0.015 0.036 0 0.051l0.177 0.177c0.015 0.015 0.033 0.021 0.051 0.021s0.036 -0.006 0.051 -0.021L0.72 0.261c0.012 -0.012 0.012 -0.036 0 -0.051" /></g></g><g><path d="M1.452 0.552H0.825c-0.027 0 -0.048 -0.021 -0.048 -0.048v-0.096c0 -0.027 0.021 -0.048 0.048 -0.048h0.627c0.027 0 0.048 0.021 0.048 0.048v0.096c0 0.027 -0.021 0.048 -0.048 0.048" /></g><g><path d="M1.452 0.981H0.681c-0.027 0 -0.048 -0.021 -0.048 -0.048v-0.096c0 -0.027 0.021 -0.048 0.048 -0.048h0.771c0.027 0 0.048 0.021 0.048 0.048v0.096c0 0.027 -0.021 0.048 -0.048 0.048" /></g><g><path d="M0.39 0.981H0.294c-0.027 0 -0.048 -0.021 -0.048 -0.048v-0.096c0 -0.027 0.021 -0.048 0.048 -0.048H0.39c0.027 0 0.048 0.021 0.048 0.048v0.096c0.003 0.027 -0.021 0.048 -0.048 0.048" /></g><g><path d="M0.39 1.41H0.294c-0.027 0 -0.048 -0.021 -0.048 -0.048v-0.096c0 -0.027 0.021 -0.048 0.048 -0.048H0.39c0.027 0 0.048 0.021 0.048 0.048v0.096c0.003 0.027 -0.021 0.048 -0.048 0.048" /></g><g><path d="M1.452 1.41H0.681c-0.027 0 -0.048 -0.021 -0.048 -0.048v-0.096c0 -0.027 0.021 -0.048 0.048 -0.048h0.771c0.027 0 0.048 0.021 0.048 0.048v0.096c0 0.027 -0.021 0.048 -0.048 0.048" /></g></svg>