 <svg width="18px" height="18px" style="margin-right: 2px;" viewBox="0 0 0.72 0.72" version="1.1" xmlns="http://www.w3.org/2000/svg" xmlns:xlink="http://www.w3.org/1999/xlink"><title>telegram_line</title><g id="页面-1" stroke="none" stroke-width="1" fill="none" fill-rule="evenodd"><g id="Brand" transform="translate(-672)"><g id="telegram_line" transform="translate(672)"><path d="M0.72 0v0.72H0V0zM0.378 0.698l0 0 -0.002 0.001 -0.001 0 0 0 -0.002 -0.001q0 0 -0.001 0l0 0 -0.001 0.013 0 0.001 0 0 0.003 0.002 0 0 0 0 0.003 -0.002 0 0 0 -0.001 -0.001 -0.013q0 0 -0.001 -0.001m0.008 -0.003 0 0 -0.006 0.003 0 0 0 0 0.001 0.013 0 0 0 0 0.006 0.003q0.001 0 0.001 0l0 0 -0.001 -0.018q0 -0.001 -0.001 -0.001m-0.021 0a0.001 0.001 0 0 0 -0.001 0l0 0 -0.001 0.018q0 0.001 0.001 0.001l0 0 0.006 -0.003 0 0 0 0 0.001 -0.013 0 0 0 0z" id="MingCute" fill-rule="nonzero" /><path d="M0.655 0.182a0.045 0.045 0 0 0 -0.062 -0.049l-0.513 0.216c-0.036 0.015 -0.038 0.067 0 0.082a1.71 1.71 0 0 0 0.113 0.043c0.035 0.012 0.073 0.022 0.104 0.025 0.008 0.01 0.019 0.02 0.03 0.028 0.016 0.013 0.036 0.027 0.057 0.041 0.041 0.027 0.086 0.052 0.117 0.069 0.037 0.02 0.08 -0.003 0.087 -0.043zM0.138 0.39l0.454 -0.191 -0.064 0.385c-0.03 -0.016 -0.073 -0.041 -0.112 -0.066a0.6 0.6 0 0 1 -0.051 -0.037 0.24 0.24 0 0 1 -0.013 -0.011l0.119 -0.119a0.03 0.03 0 0 0 -0.042 -0.042L0.299 0.439c-0.022 -0.003 -0.053 -0.011 -0.086 -0.022a1.47 1.47 0 0 1 -0.074 -0.027" id="形状" fill="#727272" /></g></g></g></svg>