<svg width="16px" height="16px" viewBox="0 0 16 16" xmlns="http://www.w3.org/2000/svg" mirror-in-rtl="true" style="margin-right:3px"><g fill="#727272" fill-rule="evenodd"><path d="M13.62 0H2.38A2.38 2.38 0 0 0 0 2.38v5.907A2.38 2.38 0 0 0 2.38 10.667H3.333v2c0 0.566 0.359 1.072 0.893 1.26a1.342 1.342 0 0 0 1.48 -0.427l2.267 -2.834h5.647A2.38 2.38 0 0 0 16 8.286V2.38A2.38 2.38 0 0 0 13.62 0M14.667 8.286a1.053 1.053 0 0 1 -1.047 1.047H7.333l-2.667 3.333V9.333H2.38A1.053 1.053 0 0 1 1.333 8.286V2.38A1.053 1.053 0 0 1 2.38 1.333h11.24A1.053 1.053 0 0 1 14.667 2.38z" /><path cx="6" cy="8" r="2" d="M5.333 5.333a1.333 1.333 0 0 1 -1.333 1.333A1.333 1.333 0 0 1 2.667 5.333a1.333 1.333 0 0 1 2.667 0" /><path cx="12" cy="8" r="2" d="M9.333 5.333A1.333 1.333 0 0 1 8 6.667 1.333 1.333 0 0 1 6.667 5.333a1.333 1.333 0 0 1 2.667 0" /><path cx="18" cy="8" r="2" d="M13.333 5.333a1.333 1.333 0 0 1 -1.333 1.333A1.333 1.333 0 0 1 10.667 5.333a1.333 1.333 0 0 1 2.667 0" /></g></svg>