<svg class="sidebar-image" width="24px" height="24px" version="1.1" id="Layer_1" xmlns="http://www.w3.org/2000/svg" xmlns:xlink="http://www.w3.org/1999/xlink" x="0px" y="0px" viewBox="0 0 32 32" xml:space="preserve"><g><g><g><path d="M18.23 4.643H2.026c-0.773 0 -1.402 0.629 -1.402 1.402v24.506c0 0.773 0.629 1.402 1.402 1.402h16.204c0.773 0 1.402 -0.629 1.402 -1.402V6.045c0 -0.773 -0.629 -1.402 -1.402 -1.402m-1.875 24.907H3.901a0.874 0.874 0 0 1 0 -1.748h12.454a0.874 0.874 0 0 1 0 1.748m0 -4.151H3.901a0.874 0.874 0 0 1 0 -1.748h12.454a0.874 0.874 0 0 1 0 1.748m0 -4.151H3.901a0.874 0.874 0 0 1 0 -1.748h12.454a0.874 0.874 0 0 1 0 1.748m0 -4.151H3.901a0.874 0.874 0 0 1 0 -1.748h12.454a0.874 0.874 0 0 1 0 1.748m0 -4.151H3.901a0.874 0.874 0 0 1 0 -1.748h12.454a0.874 0.874 0 0 1 0 1.748m0 -4.151H3.901a0.874 0.874 0 0 1 0 -1.748h12.454a0.874 0.874 0 0 1 0 1.748" /><path d="M23.019 0H6.178c-0.773 0 -1.402 0.629 -1.402 1.402v1.493h13.455c1.737 0 3.15 1.413 3.15 3.15v21.757h1.639c0.773 0 1.402 -0.629 1.402 -1.402V1.402C24.421 0.629 23.792 0 23.019 0" /></g></g></g></svg>