<svg fill="#000000" width="24px" height="24px" viewBox="0 0 0.72 0.72" version="1.2" baseProfile="tiny" xmlns="http://www.w3.org/2000/svg"><path d="M0.63 0.21h-0.09c0 -0.049 -0.041 -0.09 -0.09 -0.09H0.09C0.041 0.12 0 0.16 0 0.21v0.21c0 0.049 0.041 0.09 0.09 0.09v0.09l0.09 -0.09c0 0.049 0.041 0.09 0.09 0.09h0.24l0.09 0.09v-0.09h0.03c0.049 0 0.09 -0.041 0.09 -0.09v-0.21c0 -0.049 -0.041 -0.09 -0.09 -0.09M0.09 0.45c-0.016 0 -0.03 -0.014 -0.03 -0.03V0.21c0 -0.016 0.014 -0.03 0.03 -0.03h0.36c0.016 0 0.03 0.014 0.03 0.03v0.03H0.285A0.075 0.075 0 0 0 0.21 0.315V0.45zm0.57 0.06c0 0.016 -0.014 0.03 -0.03 0.03H0.27c-0.016 0 -0.03 -0.014 -0.03 -0.03v-0.195C0.24 0.29 0.26 0.27 0.285 0.27H0.63c0.016 0 0.03 0.014 0.03 0.03z"/></svg>