<svg width="32px" height="32px" viewBox="0 0 0.64 0.64" xmlns="http://www.w3.org/2000/svg" fill="none"><g fill="#000000"><path d="M0.369 0.149a0.03 0.03 0 0 1 0.042 0l0.14 0.14a0.03 0.03 0 0 1 0 0.042l-0.14 0.14a0.03 0.03 0 1 1 -0.042 -0.042l0.119 -0.119 -0.119 -0.119a0.03 0.03 0 0 1 0 -0.042"/><path d="M0.209 0.149a0.03 0.03 0 0 1 0.042 0l0.14 0.14a0.03 0.03 0 0 1 0 0.042l-0.14 0.14a0.03 0.03 0 0 1 -0.042 -0.042L0.298 0.34H0.08A0.03 0.03 0 0 1 0.08 0.28h0.218L0.209 0.191a0.03 0.03 0 0 1 0 -0.042"/></g></svg>