<svg width="19" height="22" viewBox="0 0 19 22" fill="none" xmlns="http://www.w3.org/2000/svg">
<path d="M9.1 0.703613C7.05783 0.703613 5.09931 1.51486 3.65528 2.95889C2.21125 4.40292 1.4 6.36145 1.4 8.40361V14.7036H0V16.1036H18.2V14.7036H16.8V8.40361C16.8 6.36145 15.9888 4.40292 14.5447 2.95889C13.1007 1.51486 11.1422 0.703613 9.1 0.703613ZM5.6 18.2036V17.5036H12.6V18.2036C12.6 19.1319 12.2313 20.0221 11.5749 20.6785C10.9185 21.3349 10.0283 21.7036 9.1 21.7036C8.17174 21.7036 7.2815 21.3349 6.62513 20.6785C5.96875 20.0221 5.6 19.1319 5.6 18.2036Z"/>
</svg>
