<svg fill="#000000" height="64px" width="64px" version="1.1" id="Layer_1" xmlns="http://www.w3.org/2000/svg" xmlns:xlink="http://www.w3.org/1999/xlink" viewBox="0 0 3.36 3.36" enable-background="new 0 0 42 42" xml:space="preserve"><path d="M1.224 1.608c0 0.248 0.208 0.456 0.456 0.456S2.136 1.856 2.136 1.608 1.928 1.152 1.68 1.152 1.224 1.36 1.224 1.608m0.648 0.984C2.408 2.472 3.24 1.76 3.24 1.76S2.624 0.8 1.8 0.696C1.752 0.688 1.592 0.688 1.56 0.688 0.76 0.768 0.12 1.784 0.12 1.784s0.696 0.688 1.36 0.792a1.2 1.2 0 0 0 0.392 0.016M0.888 1.656C0.888 1.24 1.24 0.904 1.68 0.904S2.472 1.24 2.472 1.656 2.12 2.4 1.68 2.4 0.888 2.064 0.888 1.656"/></svg>