<svg width="32px" height="32px" viewBox="0 0 2.56 2.56" xmlns="http://www.w3.org/2000/svg" xmlns:xlink="http://www.w3.org/1999/xlink" aria-hidden="true" role="img" class="iconify iconify--emojione" preserveAspectRatio="xMidYMid meet"><path d="M0.236 2.48c-0.132 0 -0.192 -0.096 -0.132 -0.212L1.172 0.168c0.06 -0.116 0.156 -0.116 0.216 0l1.068 2.1c0.06 0.116 0 0.212 -0.132 0.212z" fill="#ffce31"/><g fill="#231f20"><path d="m1.112 0.944 0.112 0.74c0.012 0.072 0.104 0.072 0.116 0l0.108 -0.74c0.02 -0.288 -0.356 -0.288 -0.336 0"/><path cx="32" cy="49.6" r="4.2" d="M1.448 1.984A0.168 0.168 0 0 1 1.28 2.152A0.168 0.168 0 0 1 1.112 1.984A0.168 0.168 0 0 1 1.448 1.984z"/></g></svg>